<?xml version="1.0" standalone="no"?>
<!DOCTYPE svg PUBLIC "-//W3C//DTD SVG 20010904//EN"
 "http://www.w3.org/TR/2001/REC-SVG-20010904/DTD/svg10.dtd">
<svg version="1.0" xmlns="http://www.w3.org/2000/svg"
 width="1920.000000pt" height="1905.000000pt" viewBox="0 0 1920.000000 1905.000000"
 preserveAspectRatio="xMidYMid meet">

<g transform="translate(0.000000,1905.000000) scale(0.100000,-0.100000)"
fill="#000000" stroke="none">
<path d="M5999 16806 c-2 -2 -69 -7 -149 -10 -80 -4 -165 -11 -190 -15 -25 -5
-48 -7 -52 -5 -4 2 -28 -1 -55 -7 -26 -5 -61 -12 -78 -14 -62 -8 -139 -22
-163 -29 -9 -3 -32 -8 -51 -11 -19 -3 -37 -8 -41 -10 -4 -2 -20 -7 -36 -10
-16 -3 -54 -12 -84 -20 -30 -9 -62 -17 -70 -20 -8 -2 -28 -8 -45 -15 -16 -6
-31 -11 -33 -10 -2 1 -15 -2 -30 -8 -15 -5 -74 -27 -132 -48 -58 -20 -124 -45
-147 -56 -23 -10 -44 -18 -48 -18 -22 0 -399 -196 -490 -254 -244 -157 -410
-282 -535 -401 -36 -34 -90 -84 -121 -111 -94 -82 -291 -304 -408 -459 -236
-315 -427 -674 -547 -1030 -35 -100 -93 -294 -100 -328 -2 -10 -5 -26 -8 -35
-3 -9 -7 -29 -10 -45 -3 -15 -7 -35 -10 -45 -6 -19 -11 -48 -26 -141 -6 -36
-13 -67 -15 -71 -2 -3 -6 -39 -9 -79 -3 -40 -8 -76 -11 -81 -16 -25 -19 -354
-22 -2224 -4 -2027 -3 -2068 15 -2064 16 5 19 0 19 -30 -1 -36 22 -60 24 -25
0 12 4 9 11 -9 10 -29 27 -35 57 -18 16 8 18 5 17 -23 -1 -25 -5 -32 -19 -30
-12 0 -16 -4 -13 -12 3 -8 -3 -16 -12 -18 -9 -2 9 -3 40 -2 32 0 60 -4 62 -10
2 -5 5 -4 5 3 1 6 5 12 10 12 4 0 7 -25 5 -55 l-3 -54 25 11 c20 9 27 9 33 -1
5 -8 18 -10 37 -5 l29 7 -30 -25 c-21 -18 -32 -23 -37 -15 -4 7 -8 8 -8 2 0
-24 21 -38 61 -40 24 -2 47 2 51 8 4 6 10 8 14 4 4 -3 1 -13 -5 -21 -8 -9 -10
-24 -5 -38 6 -20 5 -21 -9 -10 -9 8 -18 9 -21 4 -3 -6 1 -13 10 -16 19 -7 16
-72 -4 -68 -9 2 -7 -6 5 -22 10 -14 21 -26 24 -26 12 0 20 33 10 39 -5 3 -7
18 -4 34 4 21 11 27 31 27 13 0 31 8 38 18 12 16 13 16 20 -2 5 -12 3 -21 -4
-24 -7 -2 -12 -15 -12 -28 0 -13 -6 -24 -12 -24 -9 0 -9 -3 -2 -8 6 -4 14 -16
18 -26 6 -18 7 -18 19 -2 22 29 60 17 68 -22 4 -18 3 -35 -2 -38 -20 -12 3
-23 28 -13 38 14 51 5 55 -38 2 -25 8 -37 16 -35 7 1 21 -2 31 -7 12 -7 22 -6
29 1 8 8 13 7 18 -5 7 -19 -4 -40 -17 -32 -5 4 -9 2 -9 -4 0 -5 6 -12 13 -14
9 -4 9 -8 -2 -15 -7 -5 -10 -15 -6 -21 5 -8 11 -9 19 -2 8 7 24 7 49 -1 34
-11 51 -28 26 -28 -5 0 -8 -4 -4 -9 8 -14 -14 -24 -28 -13 -19 14 -70 25 -62
12 3 -5 1 -10 -4 -10 -16 0 -13 -26 3 -39 12 -10 17 -8 26 8 13 25 29 27 45 4
8 -11 18 -14 31 -8 10 4 34 9 52 12 26 3 32 0 32 -15 0 -10 -5 -23 -11 -29 -6
-6 -8 -20 -4 -32 6 -18 11 -20 47 -14 45 7 43 12 22 -57 -6 -18 -2 -20 39 -20
44 0 46 -1 56 -36 5 -19 8 -41 5 -49 -3 -7 0 -16 7 -21 7 -4 15 -2 17 4 5 15
37 15 63 2 14 -8 19 -7 19 1 0 7 3 10 6 6 9 -9 -9 -32 -26 -32 -8 0 -15 -9
-15 -20 0 -16 9 -21 43 -26 39 -5 84 -29 54 -29 -7 0 -12 -9 -12 -20 0 -22 15
-27 23 -7 3 6 6 2 6 -10 1 -27 35 -32 61 -8 14 13 17 12 28 -5 10 -16 10 -20
-2 -20 -8 0 -16 -7 -20 -15 -3 -8 -2 -15 3 -15 5 0 8 -8 7 -17 -1 -15 6 -17
46 -15 l47 4 -6 -54 c-3 -29 -10 -54 -15 -56 -4 -2 -8 -10 -8 -18 0 -8 -4 -14
-10 -14 -5 0 -10 -7 -10 -16 0 -9 5 -14 12 -12 12 4 14 8 38 60 7 15 17 25 21
22 4 -2 11 1 16 8 4 7 10 -106 13 -252 3 -146 7 815 8 2135 3 2242 7 2665 31
2855 62 502 264 1028 560 1455 190 276 491 584 770 790 51 38 240 160 293 190
126 71 218 118 283 147 39 17 88 38 110 48 104 45 316 116 362 121 5 1 15 5
24 10 9 4 29 11 45 13 16 3 44 10 62 15 18 5 33 9 35 9 2 -1 93 17 162 32 40
9 139 21 317 40 63 6 1050 10 2832 10 2360 0 2757 -2 2893 -15 159 -15 360
-46 421 -64 17 -5 32 -8 32 -5 0 3 8 0 18 -5 9 -5 31 -11 47 -14 71 -12 244
-67 438 -141 38 -15 148 -66 245 -116 872 -440 1505 -1244 1725 -2191 36 -156
55 -281 77 -497 14 -141 14 -5553 0 -5694 -19 -188 -30 -269 -61 -425 -13 -64
-45 -192 -60 -238 -66 -209 -90 -275 -130 -362 -10 -24 -19 -45 -19 -48 0 -12
-108 -226 -147 -293 -24 -40 -43 -74 -43 -76 0 -9 -158 -238 -218 -316 -195
-253 -544 -581 -760 -715 -9 -5 -38 -25 -65 -43 -127 -86 -345 -201 -520 -273
-105 -43 -287 -108 -323 -115 -6 -1 -38 -10 -70 -19 -33 -9 -67 -19 -77 -21
-10 -2 -27 -6 -37 -9 -10 -3 -29 -8 -42 -10 -13 -3 -43 -9 -68 -14 -81 -17
-305 -52 -317 -49 -4 1 -52 -2 -106 -6 -54 -5 -470 -9 -925 -10 -455 -2 -1590
-4 -2522 -7 -932 -2 -1546 -6 -1365 -9 182 -3 319 -6 305 -8 -24 -2 -26 -6
-22 -39 3 -34 2 -36 -11 -21 -8 10 -17 15 -20 12 -9 -10 4 -34 19 -34 16 0 19
-16 4 -25 -5 -3 -7 -12 -4 -20 4 -10 0 -12 -15 -8 -15 4 -21 1 -21 -11 0 -9 8
-16 19 -16 10 0 22 -7 25 -16 11 -28 21 -5 21 44 0 43 2 47 23 45 13 -2 21 1
17 7 -3 5 0 7 8 4 18 -7 28 -74 14 -92 -5 -7 -6 -16 -2 -20 4 -4 10 -1 12 6 3
6 14 12 24 12 11 0 29 4 39 10 16 8 18 6 17 -24 -1 -26 -5 -32 -18 -29 -19 5
-35 -12 -19 -22 5 -3 10 -1 10 6 0 7 3 9 6 6 11 -11 13 -71 3 -83 -13 -16 16
-52 31 -38 8 8 8 19 0 39 -15 39 -6 58 26 52 20 -3 27 1 34 19 5 13 12 24 16
24 3 0 4 -7 0 -15 -3 -8 1 -21 9 -29 21 -20 19 -28 -5 -21 -23 7 -28 -13 -8
-33 9 -9 8 -12 -5 -12 -9 0 -17 5 -17 12 0 6 -3 8 -6 5 -10 -10 16 -37 34 -35
10 1 32 0 50 0 29 -2 31 -4 23 -21 -8 -14 -5 -23 12 -38 28 -26 77 -39 77 -21
0 9 3 8 10 -2 13 -20 12 -30 -1 -30 -6 0 -17 -7 -25 -15 -14 -13 -13 -15 5
-15 12 0 21 -4 21 -10 0 -5 11 -10 24 -10 31 0 48 -21 44 -57 -3 -26 -1 -28
27 -25 16 2 36 8 43 14 16 14 28 2 14 -14 -17 -21 0 -81 23 -84 11 -1 31 -6
45 -10 21 -5 23 -4 13 7 -18 18 -16 29 4 29 9 0 13 -3 10 -6 -3 -4 -2 -15 3
-24 7 -13 5 -21 -5 -30 -8 -7 -13 -16 -10 -20 3 -5 1 -11 -5 -15 -24 -15 -7
-24 34 -19 42 6 43 6 48 -24 3 -21 0 -33 -9 -37 -30 -11 0 -23 57 -22 64 0 86
-9 58 -24 -10 -5 -20 -26 -23 -47 -4 -20 -11 -47 -17 -59 -8 -17 -7 -25 4 -37
14 -13 18 -13 34 -1 25 19 44 18 66 -2 15 -13 21 -14 27 -5 10 16 64 5 58 -12
-2 -6 -20 -12 -40 -14 -20 -2 -37 -8 -37 -15 0 -8 -3 -8 -12 1 -17 17 -28 15
-28 -4 0 -38 51 -53 64 -18 9 24 46 16 56 -12 13 -34 13 -34 -9 -34 -16 0 -31
-18 -31 -36 0 -2 13 -10 29 -18 28 -15 29 -14 35 8 3 13 3 38 0 55 -6 28 -4
31 19 31 16 0 31 -8 37 -20 9 -16 8 -20 -5 -20 -11 0 -15 -7 -13 -22 3 -20 9
-23 48 -23 25 0 51 4 58 9 7 5 12 4 12 -3 0 -6 -4 -11 -9 -11 -12 0 -8 -49 4
-52 6 -2 -138 -5 -320 -8 -181 -3 750 -6 2070 -8 2476 -2 2392 -3 2690 33 28
3 68 10 90 15 22 5 69 14 105 21 112 20 325 77 464 124 452 151 917 416 1261
719 473 417 781 837 1037 1416 62 139 168 469 198 615 7 33 16 74 21 90 8 31
35 190 43 260 3 22 11 81 18 130 19 133 19 7512 0 7660 -24 177 -43 298 -63
396 -11 52 -21 104 -23 115 -15 79 -121 411 -152 481 -13 28 -24 55 -24 58 0
9 -110 258 -120 270 -4 6 -27 48 -51 95 -216 424 -585 861 -1023 1215 -93 75
-246 179 -401 272 -90 54 -355 193 -368 193 -3 0 -35 14 -70 30 -36 17 -68 30
-70 30 -3 0 -18 5 -34 12 -15 6 -32 12 -38 14 -5 2 -41 15 -80 29 -113 42
-324 106 -365 111 -15 2 -38 8 -52 13 -14 5 -28 8 -30 5 -3 -2 -24 3 -48 11
-24 8 -45 13 -47 11 -3 -2 -18 0 -35 5 -17 5 -50 11 -72 14 -23 3 -66 10 -96
15 -62 10 -146 20 -235 28 -70 6 -7289 15 -7296 8z m-3644 -7666 c3 -5 1 -10
-4 -10 -6 0 -11 5 -11 10 0 6 2 10 4 10 3 0 8 -4 11 -10z m185 -200 c0 -5 -4
-10 -10 -10 -5 0 -10 5 -10 10 0 6 5 10 10 10 6 0 10 -4 10 -10z m55 -40 c3
-5 1 -10 -4 -10 -6 0 -11 5 -11 10 0 6 2 10 4 10 3 0 8 -4 11 -10z m105 -125
c0 -8 -4 -15 -10 -15 -5 0 -10 7 -10 15 0 8 5 15 10 15 6 0 10 -7 10 -15z
m355 -255 c3 -5 1 -10 -4 -10 -6 0 -11 5 -11 10 0 6 2 10 4 10 3 0 8 -4 11
-10z m233 -334 c-7 -8 -15 -12 -17 -11 -5 6 10 25 20 25 5 0 4 -6 -3 -14z m73
-89 c-10 -9 -11 -8 -5 6 3 10 9 15 12 12 3 -3 0 -11 -7 -18z m376 -344 c-3
-10 -5 -4 -5 12 0 17 2 24 5 18 2 -7 2 -21 0 -30z m4321 -4220 c-10 -2 -28 -2
-40 0 -13 2 -5 4 17 4 22 1 32 -1 23 -4z m182 -193 c0 -5 -5 -10 -11 -10 -5 0
-7 5 -4 10 3 6 8 10 11 10 2 0 4 -4 4 -10z m40 -40 c0 -5 -4 -10 -10 -10 -5 0
-10 5 -10 10 0 6 5 10 10 10 6 0 10 -4 10 -10z m445 -530 c3 -5 -1 -10 -9 -10
-9 0 -16 5 -16 10 0 6 4 10 9 10 6 0 13 -4 16 -10z m125 -172 c0 -13 -4 -30
-10 -38 -7 -12 -12 -12 -34 0 -35 18 -33 38 7 49 17 5 33 10 35 10 1 1 2 -9 2
-21z m210 -162 c0 -3 -4 -8 -10 -11 -5 -3 -10 -1 -10 4 0 6 5 11 10 11 6 0 10
-2 10 -4z m137 -132 c-3 -3 -12 -4 -19 -1 -8 3 -5 6 6 6 11 1 17 -2 13 -5z
m80 0 c-3 -3 -12 -4 -19 -1 -8 3 -5 6 6 6 11 1 17 -2 13 -5z"/>
<path d="M6889 14486 c-2 -3 -31 -6 -64 -7 -63 -2 -261 -32 -330 -50 -22 -6
-58 -15 -80 -21 -183 -47 -465 -166 -629 -265 -140 -86 -305 -212 -443 -340
-56 -52 -194 -208 -233 -264 -14 -19 -28 -38 -32 -44 -4 -5 -18 -23 -31 -40
-92 -120 -229 -380 -289 -545 -11 -30 -23 -64 -28 -75 -18 -41 -70 -238 -90
-345 -40 -206 -40 -184 -39 -2980 1 -1477 5 -2698 9 -2715 4 -16 8 -24 9 -17
1 8 11 12 28 10 22 -2 29 -10 34 -36 4 -18 3 -35 -2 -38 -23 -14 -5 -21 34
-13 23 4 44 8 47 9 9 0 -1 -70 -11 -76 -5 -3 -9 -1 -9 4 0 18 -56 31 -80 19
-26 -13 -41 -40 -17 -31 9 3 17 -3 22 -18 7 -21 8 -21 12 10 2 17 6 32 8 32 3
0 20 -9 39 -19 19 -11 43 -17 55 -14 38 10 70 -5 67 -30 -1 -13 -6 -28 -10
-35 -12 -20 3 -33 23 -20 29 18 75 -3 78 -35 1 -22 -3 -27 -20 -27 -16 0 -18
-3 -9 -12 19 -19 15 -48 -8 -48 -26 0 -25 -5 3 -36 l24 -25 17 26 c15 23 15
27 1 41 -20 20 -15 38 12 42 25 4 48 -23 48 -57 0 -23 4 -26 43 -29 35 -3 42
-7 42 -24 0 -17 2 -18 15 -8 8 7 15 8 15 4 0 -5 -9 -15 -20 -22 -29 -18 -16
-32 29 -32 33 0 39 -4 43 -25 3 -14 -1 -30 -9 -37 -18 -15 0 -28 39 -28 15 0
39 -5 55 -12 22 -9 24 -12 11 -15 -10 -3 -18 -9 -18 -14 0 -5 -11 -9 -25 -9
-14 0 -25 5 -25 10 0 19 -47 11 -53 -10 -6 -25 16 -32 66 -21 34 8 39 7 52
-18 10 -19 14 -21 15 -8 0 12 8 17 29 17 16 0 32 6 34 13 4 9 8 8 16 -3 15
-21 13 -33 -4 -26 -8 3 -15 1 -15 -4 0 -6 5 -10 10 -10 6 0 10 -10 10 -21 0
-18 -2 -19 -15 -9 -13 10 -15 9 -15 -10 0 -21 3 -22 45 -16 38 6 45 5 45 -9 0
-12 5 -15 18 -11 11 4 9 -1 -7 -14 -13 -11 -22 -23 -19 -25 3 -3 27 -11 55
-17 47 -11 49 -13 50 -47 1 -20 -3 -43 -8 -53 -6 -10 -5 -19 1 -23 5 -3 10
-16 10 -28 -1 -21 -1 -21 -15 -3 -7 10 -19 16 -25 14 -7 -2 -3 -14 11 -32 l22
-28 14 26 c10 19 11 31 3 45 -17 32 -12 41 24 41 19 0 36 4 38 8 2 4 11 0 20
-10 14 -14 15 -18 4 -18 -8 0 -17 6 -20 13 -3 6 -3 2 0 -10 4 -16 1 -23 -10
-23 -8 0 -18 -5 -21 -10 -9 -14 14 -42 27 -33 6 3 28 6 49 7 33 1 38 -2 42
-24 3 -14 3 -28 0 -32 -6 -12 -81 -10 -85 2 -1 5 -13 7 -25 4 l-22 -6 21 -29
c20 -26 48 -43 33 -20 -10 18 33 33 56 20 12 -6 39 -9 60 -6 42 6 44 2 40 -57
-3 -28 -2 -29 39 -23 40 5 42 4 38 -18 -4 -16 -1 -22 8 -18 10 4 10 -2 -2 -26
-8 -17 -13 -40 -9 -51 5 -16 2 -20 -19 -20 -35 0 -33 -16 4 -29 18 -6 30 -6
30 0 0 5 12 9 28 10 24 0 25 1 7 9 -21 8 -51 38 -44 43 2 2 23 8 45 13 37 10
43 8 64 -13 18 -18 19 -23 6 -23 -9 0 -16 5 -16 10 0 15 -17 12 -23 -4 -4 -10
-1 -13 9 -9 9 3 14 -2 14 -16 0 -12 -5 -21 -11 -21 -8 0 -10 -14 -6 -42 3 -24
4 -38 1 -31 -3 7 -12 9 -20 6 -19 -7 -18 -23 1 -23 8 0 15 -7 15 -15 0 -8 5
-15 10 -15 6 0 10 6 10 14 0 15 27 30 48 27 6 -1 12 5 12 13 0 10 -6 13 -15
10 -20 -8 -45 13 -45 38 0 18 5 19 34 14 23 -5 36 -3 39 6 2 7 7 10 11 7 3 -3
1 -20 -5 -37 -15 -44 -9 -54 40 -66 23 -6 43 -15 43 -21 1 -7 -20 -23 -40 -31
-1 -1 2 -12 7 -25 10 -24 10 -24 10 -2 1 16 5 21 17 16 11 -4 12 -8 4 -13 -8
-5 -9 -10 -2 -14 6 -3 13 -2 17 4 9 14 56 8 51 -6 -3 -7 2 -18 10 -25 10 -8
13 -22 9 -43 -12 -56 -16 -65 -30 -60 -7 3 -16 1 -20 -5 -3 -6 -1 -11 6 -11 6
0 21 -10 32 -23 l20 -22 -6 23 c-3 15 -1 22 9 22 17 0 17 5 2 30 -18 29 1 43
46 35 38 -8 46 -19 21 -29 -8 -3 -15 -10 -15 -15 0 -17 32 -42 46 -37 22 8 44
-4 44 -25 0 -10 -4 -19 -10 -19 -5 0 -10 -4 -10 -10 0 -5 9 -10 20 -10 11 0
20 -4 20 -10 0 -15 47 -12 63 4 11 12 15 11 24 -3 9 -14 7 -20 -8 -29 -10 -7
-19 -19 -19 -27 0 -12 -7 -14 -27 -9 -16 4 -31 11 -34 16 -7 12 -39 -1 -39
-16 0 -6 7 -20 15 -30 14 -18 15 -18 34 5 17 20 22 22 30 10 8 -12 12 -12 24
-2 10 8 17 9 22 1 8 -13 55 -13 55 0 0 6 7 10 15 10 12 0 13 -4 5 -19 -5 -11
-10 -41 -10 -67 0 -46 1 -47 19 -30 11 10 30 16 43 14 19 -2 24 -10 26 -40 3
-34 6 -37 42 -43 33 -6 39 -10 43 -38 3 -18 1 -36 -4 -41 -12 -13 -11 -36 1
-36 6 0 10 7 10 15 0 26 48 18 66 -10 14 -22 15 -30 4 -50 -15 -28 -4 -49 11
-22 11 20 49 23 67 5 7 -7 12 -8 12 -2 0 6 -5 15 -12 22 -6 6 -10 13 -7 15 2
3 14 -6 27 -19 19 -20 20 -24 6 -24 -11 0 -15 -6 -11 -20 4 -17 1 -19 -19 -14
-15 4 -24 2 -24 -5 0 -15 16 -21 76 -29 58 -9 67 -27 22 -47 -21 -10 -26 -15
-13 -14 38 2 50 -3 25 -11 -18 -6 -4 -8 48 -9 41 -1 72 -5 72 -11 0 -5 -10
-10 -22 -11 -22 -1 -22 -1 2 -10 16 -5 -6 -7 -60 -3 -47 3 -89 10 -95 16 -7 8
-5 9 7 5 12 -4 15 -2 11 9 -3 8 -12 13 -19 10 -16 -6 -19 10 -4 19 11 7 2 35
-12 35 -6 0 -8 -6 -5 -14 8 -20 -4 -28 -21 -13 -13 10 -14 9 -8 -2 7 -10 3
-12 -13 -6 -13 4 -21 2 -21 -5 0 -6 5 -8 12 -4 8 5 9 1 4 -12 -6 -15 -5 -17 5
-6 18 17 32 15 25 -3 -3 -9 0 -15 8 -15 8 0 16 -6 19 -12 6 -19 5577 -19 5692
0 219 36 281 49 419 92 137 42 268 96 401 165 244 126 404 244 606 445 202
202 331 378 452 618 92 183 179 413 202 533 3 13 11 58 19 99 8 41 21 109 28
150 10 61 13 620 13 2920 0 2891 0 2903 -34 3055 -5 22 -15 67 -22 100 -47
230 -160 501 -322 770 -16 25 -119 169 -126 175 -3 3 -25 30 -48 60 -62 81
-295 307 -393 382 -78 59 -175 125 -225 154 -11 6 -42 24 -70 40 -102 61 -309
153 -420 189 -124 39 -223 65 -325 84 -30 5 -84 16 -120 23 -52 10 -631 13
-2876 15 -1545 2 -2812 1 -2815 -1z m6130 -1277 c243 -76 395 -256 417 -492 9
-106 -19 -232 -73 -325 -44 -74 -157 -180 -228 -213 -100 -46 -176 -62 -274
-56 -111 6 -131 11 -221 55 -135 66 -242 193 -286 342 -20 66 -22 238 -4 296
38 124 126 246 230 317 25 18 79 44 120 59 63 23 92 27 179 27 58 1 121 -4
140 -10z m-2964 -1054 c125 -17 200 -29 265 -44 25 -5 56 -12 70 -14 14 -3 66
-17 115 -32 50 -14 97 -28 105 -30 170 -44 534 -216 730 -344 214 -141 417
-310 576 -481 38 -41 72 -76 76 -78 3 -2 26 -29 49 -60 24 -31 48 -61 54 -67
27 -26 215 -297 215 -311 0 -3 16 -29 35 -59 29 -46 106 -189 110 -205 1 -3
12 -27 24 -55 62 -135 144 -359 155 -421 3 -12 9 -31 14 -41 8 -15 23 -83 24
-110 0 -5 5 -19 10 -33 18 -47 45 -224 63 -420 17 -180 19 -333 6 -445 -5 -44
-12 -114 -16 -155 -7 -78 -27 -203 -51 -312 -3 -15 -5 -30 -5 -33 0 -2 -9 -35
-20 -72 -11 -38 -22 -76 -24 -85 -4 -20 -63 -195 -74 -223 -5 -11 -21 -51 -36
-90 -48 -119 -157 -335 -229 -450 -353 -564 -867 -995 -1481 -1242 -111 -44
-332 -116 -398 -129 -10 -2 -26 -5 -35 -8 -9 -3 -32 -8 -51 -11 -19 -3 -38 -8
-41 -10 -4 -3 -29 -7 -56 -10 -26 -4 -51 -8 -55 -10 -3 -3 -33 -7 -65 -10 -33
-3 -90 -10 -129 -16 -91 -13 -529 -13 -620 0 -38 6 -96 13 -129 16 -32 3 -62
7 -66 10 -4 3 -29 7 -54 10 -26 3 -58 10 -71 15 -14 5 -25 8 -25 5 0 -2 -15 1
-32 6 -18 5 -46 12 -62 15 -16 2 -54 13 -85 23 -31 10 -83 26 -116 36 -97 29
-297 111 -418 171 -143 72 -256 140 -421 254 -216 149 -489 414 -660 640 -31
41 -60 80 -64 85 -47 59 -181 286 -249 420 -53 106 -143 324 -143 347 0 8 -4
18 -8 23 -5 6 -14 28 -20 50 -6 22 -20 72 -31 110 -27 93 -56 224 -69 310 -6
39 -17 106 -24 150 -18 108 -17 620 0 735 51 334 100 523 201 778 46 114 142
313 184 379 15 24 27 45 27 48 0 10 138 213 191 283 132 171 319 368 479 503
223 188 513 365 775 474 50 20 99 41 110 46 39 17 240 80 319 101 97 24 253
55 356 69 206 30 583 32 795 4z m-5438 -5252 c-2 -16 -4 -3 -4 27 0 30 2 43 4
28 2 -16 2 -40 0 -55z m19 -42 c0 -11 -3 -18 -7 -15 -4 2 -10 -4 -13 -13 -3
-11 -4 -8 -3 7 2 20 10 35 22 40 1 0 1 -9 1 -19z m384 -392 c0 -11 -4 -17 -10
-14 -5 3 -10 13 -10 21 0 8 5 14 10 14 6 0 10 -9 10 -21z m453 -376 c-7 -2
-19 -2 -25 0 -7 3 -2 5 12 5 14 0 19 -2 13 -5z m402 -491 c-8 -8 -25 10 -19
20 4 6 9 5 15 -3 4 -7 6 -15 4 -17z m320 -302 c3 -5 1 -10 -4 -10 -6 0 -11 5
-11 10 0 6 2 10 4 10 3 0 8 -4 11 -10z m205 -120 c0 -5 -2 -10 -4 -10 -3 0 -8
5 -11 10 -3 6 -1 10 4 10 6 0 11 -4 11 -10z m40 -40 c0 -5 -4 -10 -10 -10 -5
0 -10 5 -10 10 0 6 5 10 10 10 6 0 10 -4 10 -10z m668 -727 c-10 -2 -28 -2
-40 0 -13 2 -5 4 17 4 22 1 32 -1 23 -4z"/>
<path d="M9480 11327 c-3 -3 -32 -8 -65 -11 -50 -4 -116 -14 -259 -42 -17 -3
-116 -32 -201 -59 -140 -45 -368 -157 -512 -252 -49 -32 -90 -60 -93 -64 -3
-3 -31 -25 -64 -48 -57 -42 -253 -231 -312 -301 -121 -145 -209 -280 -292
-447 -57 -117 -128 -287 -136 -327 -2 -6 -10 -37 -20 -68 -9 -31 -19 -69 -22
-84 -3 -15 -7 -31 -9 -35 -3 -3 -7 -28 -10 -55 -4 -26 -8 -51 -10 -55 -3 -3
-11 -64 -20 -135 -38 -327 2 -663 118 -994 74 -212 216 -467 366 -655 304
-382 787 -678 1266 -775 33 -6 69 -14 80 -16 11 -3 72 -11 135 -19 243 -31
531 -13 780 47 300 72 578 205 836 399 101 76 279 246 349 334 22 28 45 55 51
60 47 44 201 293 261 425 60 131 126 313 137 377 4 18 10 43 16 57 5 15 8 26
5 26 -2 0 1 15 6 33 9 31 23 114 37 222 11 85 6 455 -7 532 -7 40 -14 83 -16
95 -6 50 -45 209 -55 228 -6 11 -8 20 -6 20 5 0 -55 174 -74 215 -5 11 -24 54
-43 96 -44 97 -172 317 -197 339 -3 3 -17 21 -30 40 -77 112 -256 300 -375
395 -27 22 -52 43 -55 46 -21 27 -255 171 -369 228 -125 61 -407 165 -479 176
-59 8 -138 24 -152 29 -8 4 -37 8 -65 11 -77 8 -489 18 -495 12z"/>
<path d="M2326 9042 c-12 -20 -16 -88 -6 -102 9 -13 12 -12 25 4 11 15 12 22
4 27 -8 4 -10 21 -6 43 5 33 -4 48 -17 28z"/>
<path d="M2292 8985 c0 -16 2 -22 5 -12 2 9 2 23 0 30 -3 6 -5 -1 -5 -18z"/>
<path d="M2393 8930 c-16 -24 -8 -47 19 -56 27 -8 29 -3 16 39 -13 42 -18 45
-35 17z"/>
<path d="M2460 8910 c0 -5 5 -10 11 -10 5 0 7 -5 3 -12 -4 -7 -3 -8 4 -4 6 4
9 13 5 21 -6 17 -23 20 -23 5z"/>
<path d="M2500 8840 c0 -7 -7 -10 -15 -7 -26 10 -27 -12 -1 -37 20 -21 25 -22
30 -10 9 24 7 52 -4 59 -5 3 -10 1 -10 -5z"/>
<path d="M2561 8754 c-13 -13 -20 -24 -14 -24 5 0 15 -11 21 -25 18 -40 32
-29 32 25 0 28 -3 50 -7 49 -5 -1 -19 -12 -32 -25z"/>
<path d="M2705 8650 c3 -5 8 -10 11 -10 2 0 4 5 4 10 0 6 -5 10 -11 10 -5 0
-7 -4 -4 -10z"/>
<path d="M2722 8558 c22 -32 38 -34 36 -4 -2 20 -8 26 -26 26 -23 0 -24 -1
-10 -22z"/>
<path d="M2796 8571 c-4 -5 -2 -12 3 -15 5 -4 12 -2 15 3 4 5 2 12 -3 15 -5 4
-12 2 -15 -3z"/>
<path d="M2818 8502 c-24 -5 -23 -21 4 -44 14 -12 24 -15 26 -8 2 6 -4 18 -14
26 -17 14 -15 14 25 8 32 -4 42 -3 36 6 -4 6 -9 9 -12 6 -3 -2 -15 -1 -27 3
-11 4 -29 6 -38 3z"/>
<path d="M2895 8420 c-18 -8 -17 -9 8 -9 15 -1 27 4 27 9 0 12 -8 12 -35 0z"/>
<path d="M2960 8399 c0 -5 5 -7 10 -4 6 3 10 8 10 11 0 2 -4 4 -10 4 -5 0 -10
-5 -10 -11z"/>
<path d="M2902 8384 c2 -11 11 -20 22 -22 13 -3 17 1 14 14 -2 11 -11 20 -22
22 -13 3 -17 -1 -14 -14z"/>
<path d="M3040 8241 c0 -5 12 -19 27 -31 24 -19 28 -19 36 -5 12 21 -9 45 -39
45 -13 0 -24 -4 -24 -9z"/>
<path d="M3133 8155 c-18 -19 -16 -25 6 -25 11 0 21 -6 23 -12 3 -9 9 -8 21 4
21 21 22 34 1 42 -24 9 -38 7 -51 -9z"/>
<path d="M3236 8085 c-3 -8 -13 -15 -23 -15 -16 -1 -16 -2 2 -12 11 -7 26 -18
33 -25 7 -7 18 -13 23 -13 16 0 10 28 -8 40 -13 8 -14 13 -5 16 6 3 10 10 6
15 -8 14 -21 11 -28 -6z"/>
<path d="M3280 8060 c0 -5 5 -10 10 -10 6 0 10 5 10 10 0 6 -4 10 -10 10 -5 0
-10 -4 -10 -10z"/>
<path d="M3311 7991 c-11 -7 -9 -14 13 -36 31 -31 31 -31 41 13 6 29 4 32 -17
32 -13 0 -29 -4 -37 -9z"/>
<path d="M3385 7906 c-19 -14 -19 -15 8 -27 15 -7 27 -16 27 -21 0 -17 18 -7
23 13 12 45 -19 64 -58 35z"/>
<path d="M3483 7831 c-19 -16 -20 -20 -7 -25 25 -9 74 -7 74 4 0 5 -7 7 -15 4
-10 -4 -15 0 -15 15 0 26 -8 26 -37 2z"/>
<path d="M3595 7730 c0 -34 1 -38 9 -21 5 13 5 29 0 42 -8 17 -9 13 -9 -21z"/>
<path d="M3551 7736 c-9 -11 -8 -15 5 -20 23 -9 24 -8 24 14 0 23 -13 26 -29
6z"/>
<path d="M3645 7740 c-7 -12 2 -30 16 -30 5 0 9 9 9 20 0 21 -15 27 -25 10z"/>
<path d="M3677 7620 c-3 -11 -1 -20 4 -20 5 0 9 9 9 20 0 11 -2 20 -4 20 -2 0
-6 -9 -9 -20z"/>
<path d="M3741 7134 c0 -11 3 -14 6 -6 3 7 2 16 -1 19 -3 4 -6 -2 -5 -13z"/>
<path d="M3741 7064 c0 -11 3 -14 6 -6 3 7 2 16 -1 19 -3 4 -6 -2 -5 -13z"/>
<path d="M4610 6729 c0 -11 4 -18 10 -14 5 3 7 12 3 20 -7 21 -13 19 -13 -6z"/>
<path d="M4613 6635 c0 -27 2 -38 4 -22 2 15 2 37 0 50 -2 12 -4 0 -4 -28z"/>
<path d="M4622 6560 c0 -14 2 -19 5 -12 2 6 2 18 0 25 -3 6 -5 1 -5 -13z"/>
<path d="M4753 6573 c4 -3 2 -12 -4 -19 -11 -14 -4 -34 12 -34 5 0 9 7 9 15 0
8 7 15 15 15 8 0 15 7 15 15 0 10 -10 15 -27 15 -14 0 -23 -3 -20 -7z"/>
<path d="M4632 6475 c0 -16 2 -22 5 -12 2 9 2 23 0 30 -3 6 -5 -1 -5 -18z"/>
<path d="M4835 6484 c14 -11 16 -18 8 -21 -14 -5 -18 -33 -5 -33 4 0 15 8 23
18 13 15 14 22 4 35 -7 10 -21 17 -31 17 -18 -1 -18 -1 1 -16z"/>
<path d="M4652 6360 c0 -8 3 -24 8 -35 8 -18 9 -18 9 -2 1 11 6 15 13 11 7 -4
8 -3 4 5 -4 6 -11 9 -16 6 -5 -3 -11 3 -13 12 -3 12 -5 13 -5 3z"/>
<path d="M4975 6326 c-18 -13 -18 -14 4 -25 12 -7 26 -22 31 -34 l9 -22 0 22
c1 12 6 25 11 28 16 10 12 25 -7 26 -15 0 -15 2 2 9 18 8 18 9 -6 9 -14 1 -34
-5 -44 -13z"/>
<path d="M4670 6261 c0 -6 4 -13 10 -16 6 -3 7 1 4 9 -7 18 -14 21 -14 7z"/>
<path d="M5072 6243 c-13 -26 -4 -43 24 -43 19 0 24 5 24 24 0 13 -7 27 -16
30 -22 8 -22 8 -32 -11z"/>
<path d="M4695 6199 c-4 -6 -5 -12 -2 -15 2 -3 7 2 10 11 7 17 1 20 -8 4z"/>
<path d="M5226 6073 c-6 -15 8 -32 27 -33 4 0 7 -7 7 -15 0 -8 5 -15 10 -15 6
0 10 9 10 19 0 11 5 23 10 26 15 9 2 25 -14 19 -8 -3 -17 -1 -21 5 -9 16 -22
13 -29 -6z"/>
<path d="M5303 5978 c2 -7 12 -13 22 -13 10 0 20 6 23 13 2 7 -6 12 -23 12
-17 0 -25 -5 -22 -12z"/>
<path d="M5340 5940 c0 -5 5 -10 10 -10 6 0 10 5 10 10 0 6 -4 10 -10 10 -5 0
-10 -4 -10 -10z"/>
<path d="M5420 5920 c0 -5 -7 -10 -15 -10 -16 0 -21 -25 -6 -35 14 -8 91 6 91
16 0 5 -11 9 -25 9 -16 0 -25 6 -25 15 0 8 -4 15 -10 15 -5 0 -10 -4 -10 -10z"/>
<path d="M5637 5653 c-13 -12 -7 -21 18 -27 14 -4 23 -11 20 -16 -3 -5 -1 -11
5 -15 5 -3 12 6 16 21 4 17 2 29 -7 35 -17 10 -43 12 -52 2z"/>
<path d="M5741 5578 c-15 -11 -21 -22 -15 -26 6 -4 13 -15 17 -24 7 -21 23
-23 33 -6 4 6 -1 17 -10 24 -13 9 -14 14 -5 20 7 4 15 2 17 -4 5 -15 32 -16
32 -2 0 6 -7 10 -15 10 -7 0 -18 6 -22 14 -7 12 -12 11 -32 -6z"/>
<path d="M5995 5330 c-17 -19 -17 -21 7 -45 l26 -25 6 25 c5 21 -7 65 -18 65
-2 0 -11 -9 -21 -20z"/>
<path d="M5145 5310 c10 -11 20 -20 23 -20 3 0 -3 9 -13 20 -10 11 -20 20 -23
20 -3 0 3 -9 13 -20z"/>
<path d="M6077 5240 c-21 -24 -22 -34 -3 -27 9 4 16 -3 20 -16 8 -31 28 -7 24
29 -4 35 -19 40 -41 14z"/>
<path d="M5216 5228 c3 -5 10 -6 15 -3 13 9 11 12 -6 12 -8 0 -12 -4 -9 -9z"/>
<path d="M6150 5220 c0 -5 5 -10 11 -10 5 0 7 5 4 10 -3 6 -8 10 -11 10 -2 0
-4 -4 -4 -10z"/>
<path d="M6240 5076 c0 -8 8 -17 18 -19 16 -4 15 -5 -1 -6 -20 -1 -20 -32 -1
-38 18 -6 38 59 22 69 -20 12 -38 9 -38 -6z"/>
<path d="M6426 4915 c-3 -10 -12 -15 -21 -11 -27 10 -25 -12 3 -33 26 -18 29
-18 38 -3 7 12 7 24 -2 40 -10 20 -12 21 -18 7z"/>
<path d="M6520 4816 c0 -2 11 -6 25 -8 14 -3 25 -1 25 3 0 5 -11 9 -25 9 -14
0 -25 -2 -25 -4z"/>
<path d="M6480 4804 c0 -10 28 -34 39 -34 14 0 14 13 -1 28 -12 12 -38 17 -38
6z"/>
<path d="M6590 4742 c0 -10 33 -22 60 -22 13 1 13 2 0 9 -27 16 -60 22 -60 13z"/>
<path d="M6560 4725 c0 -8 34 -45 42 -45 14 0 8 23 -9 36 -18 14 -33 18 -33 9z"/>
<path d="M6640 4643 c0 -3 10 -14 21 -24 17 -15 24 -16 33 -6 6 6 17 17 24 23
10 8 1 11 -33 12 -25 0 -45 -2 -45 -5z"/>
<path d="M6720 4564 c0 -2 9 -13 21 -25 20 -20 22 -20 40 -3 28 25 24 31 -21
31 -22 0 -40 -1 -40 -3z"/>
<path d="M6220 4550 c8 -5 20 -10 25 -10 6 0 3 5 -5 10 -8 5 -19 10 -25 10 -5
0 -3 -5 5 -10z"/>
<path d="M6568 4453 c7 -3 16 -2 19 1 4 3 -2 6 -13 5 -11 0 -14 -3 -6 -6z"/>
<path d="M6688 4433 c6 -2 18 -2 25 0 6 3 1 5 -13 5 -14 0 -19 -2 -12 -5z"/>
<path d="M6938 4433 c7 -3 16 -2 19 1 4 3 -2 6 -13 5 -11 0 -14 -3 -6 -6z"/>
<path d="M6738 4423 c7 -3 16 -2 19 1 4 3 -2 6 -13 5 -11 0 -14 -3 -6 -6z"/>
<path d="M6778 4423 c7 -3 16 -2 19 1 4 3 -2 6 -13 5 -11 0 -14 -3 -6 -6z"/>
<path d="M7765 3520 c4 -6 11 -8 16 -5 14 9 11 15 -7 15 -8 0 -12 -5 -9 -10z"/>
<path d="M7845 3511 c4 -13 -1 -20 -17 -25 -22 -6 -22 -7 7 -21 17 -7 24 -14
18 -14 -18 -1 -16 -28 2 -28 8 0 15 3 16 6 0 3 3 18 5 33 2 14 0 29 -5 33 -6
3 -8 12 -4 20 3 10 -1 15 -12 15 -11 0 -15 -6 -10 -19z"/>
<path d="M7993 3381 c1 -11 6 -17 14 -14 10 4 11 9 2 19 -15 19 -18 18 -16 -5z"/>
<path d="M8016 3322 c-3 -6 -16 -8 -29 -5 -20 5 -19 2 8 -20 26 -22 32 -24 45
-11 12 12 12 16 -2 30 -9 10 -18 12 -22 6z"/>
<path d="M8050 3220 c0 -5 5 -10 10 -10 6 0 10 5 10 10 0 6 -4 10 -10 10 -5 0
-10 -4 -10 -10z"/>
<path d="M8168 3156 c-23 -17 -22 -22 2 -46 27 -27 30 -26 30 20 0 43 -5 47
-32 26z"/>
<path d="M8260 3096 c0 -25 -5 -35 -17 -38 -15 -3 -14 -6 7 -26 23 -21 25 -21
31 -5 3 10 3 19 -1 21 -5 2 -6 21 -3 42 4 26 2 40 -6 40 -6 0 -11 -15 -11 -34z"/>
<path d="M8300 3050 c0 -5 5 -10 10 -10 6 0 10 5 10 10 0 6 -4 10 -10 10 -5 0
-10 -4 -10 -10z"/>
<path d="M8340 2986 c-6 -8 -19 -12 -28 -9 -9 3 -2 -8 16 -26 40 -38 46 -38
40 -6 -4 20 -1 25 15 25 20 0 21 0 1 15 -24 18 -29 18 -44 1z"/>
<path d="M8400 2894 c0 -9 10 -25 22 -36 22 -19 22 -19 35 6 9 17 19 23 31 20
13 -5 14 -4 3 4 -7 5 -21 7 -31 5 -10 -3 -27 0 -39 6 -17 10 -21 9 -21 -5z"/>
<path d="M8500 2822 c-8 -4 -17 -16 -18 -26 -3 -17 -1 -18 11 -7 12 10 21 10
38 1 17 -10 23 -9 30 1 6 10 3 15 -11 17 -11 2 -20 8 -20 13 0 10 -8 11 -30 1z"/>
<path d="M8510 2765 c0 -8 5 -15 10 -15 6 0 10 7 10 15 0 8 -4 15 -10 15 -5 0
-10 -7 -10 -15z"/>
<path d="M8570 2721 c0 -15 31 -42 44 -38 13 4 21 47 9 47 -5 0 -14 -5 -21
-12 -9 -9 -12 -9 -12 0 0 7 -4 12 -10 12 -5 0 -10 -4 -10 -9z"/>
<path d="M8660 2650 c-18 -4 -21 -8 -12 -14 7 -4 18 -20 24 -34 l10 -27 9 23
c4 12 13 22 19 22 5 0 10 6 10 14 0 17 -27 24 -60 16z"/>
</g>
</svg>
